Genre:Sci-Fi | Thriller 
Language:English
IMDb:http://www.imdb.com/title/tt1564585/
Source:skyline.2010.D.CAMRip.PROPER/Audio:TWiZTED.Thx

General
Complete name :Skyline 2010 TS H264 Feel-Free
Format : MPEG-4
Format profile : Base Media
Codec ID : isom
File size : 586 MiB
Duration : 1h 24mn
Overall bit rate : 967 Kbps
Video #2
Codec ID : avc1
Codec ID/Info : Advanced Video Coding
Duration : 1h 24mn
Bit rate mode : Variable
Bit rate : 802 Kbps
Width : 720 pixels
Height : 304 pixels
Display aspect ratio : 2.35:1
Frame rate mode : Constant
Frame rate : 23.976 fps
Original frame rate : 23.000 fps
Resolution : 24 bits
Colorimetry : 4:2:0
Scan type : Progressive
Bits/(Pixel*Frame) : 0.153
Stream size : 486 MiB (83%)
Audio #1
ID : 1
Format : AAC
Format/Info : Advanced Audio Codec
Format version : Version 4
Format profile : LC
Format settings, SBR : No
Codec ID : 40
Duration : 1h 24mn
Bit rate mode : Constant
Bit rate : 160 Kbps
Channel(s) : 2 channels
Channel positions : L R
Sampling rate : 48.0 KHz
Resolution : 16 bits
Stream size : 96.9 MiB (17%)

Plot:
Strange lights descend on the city of Los Angeles, drawing people outside like moths to a flame where